<svg xmlns="http://www.w3.org/2000/svg" width="296.641" height="104.421" id="svg4206" viewBox="0 0 296.641 104.4208"><path d="m 159.78683,78.699001 c 42.05586,-1.1566 80.99318,11.5761 123.71647,-0.3126 l -8.88471,13.4334 c -11.01995,2.7143 -23.58729,3.629 -34.9808,2.8801 -32.03626,-1.5968 -65.01807,-13.8688 -111.48897,-4.2572 -8.99947,1.9138 -20.50002,5.4983 -29.849704,3.7089 -4.670839,-1.2073 -9.299658,-3.0779 -13.117913,-6.0923 -22.605514,10.5652 -62.460363,11.1088 -71.643633,-18.0679 -2.493083,-7.7948 -2.027745,-16.4377 1.036048,-24.0039 1.786905,-4.413 4.588222,-9.0372 7.9033,-12.2714 l -0.338692,0.1637 16.35789,-14.1995 -0.152208,0.2326 c 3.268123,-2.6443 7.044654,-4.6389 11.205605,-5.8867 9.766392,-2.929 20.217083,-1.3944 29.647933,2.0087 l 2.10552,0.7597 -15.904618,13.784 -0.723484,-0.261 c -10.021092,-3.6161 -21.340927,-5.0631 -31.374645,-0.7382 -2.453954,3.9623 -4.022981,8.4538 -4.634788,13.0716 -0.621534,4.6913 -0.439971,10.2136 1.003489,14.7267 2.476093,7.7418 7.815257,13.7102 15.212935,17.0786 4.473858,2.037 9.360423,2.9826 14.254306,3.1838 6.130501,0.2521 12.352766,-0.6434 18.299735,-2.1296 -0.861107,-4.4604 -0.338033,-9.1153 0.906197,-13.5025 0.933422,-3.3993 2.963593,-6.4835 5.475607,-9.0494 l -0.03458,-0.038 5.013047,-4.6195 -1.490782,0.2064 11.157187,-9.1032 -0.03351,0.057 c 6.007048,-4.9159 14.898988,-8.3656 22.096608,-4.9829 12.52464,5.8862 8.27227,23.5903 1.13695,31.2509 -2.45116,2.6317 -5.40526,4.6515 -8.60328,6.2276 -0.97656,1.827 -2.18735,3.5455 -3.66558,5.1325 -0.65161,0.6997 -1.33905,1.3556 -2.05687,1.9718 1.25533,0.4511 2.53201,0.8373 3.80692,1.1681 4.70161,0.8967 9.6977,0.9032 14.40741,0.3877 12.03283,-1.5701 32.77652,-1.9377 34.2356,-1.9186 z m -46.32998,-19.3101 c -2.05862,5.7824 -7.93934,9.5685 -16.971704,12.8164 0.531702,0.5981 1.099768,1.1607 1.699012,1.6894 l 0.117153,-0.023 -0.100996,0.062 2.839915,2.0447 h 0.0365 l -0.0943,0.021 c 1.13567,0.7285 2.33688,1.3715 3.57865,1.939 1.03772,-0.7953 2.01439,-1.6697 2.9124,-2.6338 3.61397,-3.8801 5.42475,-8.6272 6.09109,-13.8321 -0.0115,-0.6834 -0.0456,-1.3802 -0.10774,-2.0804 z m -17.824953,11.7838 -0.541215,-0.7531 c 10.188708,-3.6514 16.387808,-7.9786 17.642088,-15.06 -0.87359,-3.0262 -2.55459,-5.718 -5.59212,-7.1457 -4.01024,-1.8846 -8.957166,-0.9998 -13.168764,0.8649 -0.338346,0.7364 -0.619203,1.4939 -0.831682,2.2688 h -0.0015 -0.0015 c -1.445657,5.0947 -1.878735,10.6594 0.131515,15.6695 0.614168,1.5307 1.414835,2.907 2.363301,4.1444 z" id="path4186" fill="#102a83" fill-rule="evenodd" stroke="#1b1918" stroke-width=".003"/><path d="m 157.33921,35.353801 h -7.99332 v 5.0697 h 4.48383 v 31.4363 h -0.0256 c -0.0106,2.2562 -2.61243,4.0861 -5.81948,4.0861 -3.21338,0 -5.81947,-1.8374 -5.81947,-4.0998 0,-0.1493 0.0116,-0.2963 0.0337,-0.4415 v -30.9811 h 3.58213 v -7.0099 h 0.009 v -0.039 c 0,-0.9627 0.75704,-1.7504 1.68247,-1.7504 h 9.86682 v 0 h 21.72756 v -8.8706 h -1.16751 c -0.29913,3.6007 -1.35601,6.2628 -2.61333,6.2628 -0.0418,0 -0.0833,0 -0.12476,-0.015 H 120.1673 c -0.0415,0 -0.0829,0.015 -0.12475,0.015 -1.49,0 -2.69825,-3.7369 -2.69825,-8.3448 0,-4.6081 1.20825,-8.3451 2.69825,-8.3451 0.0518,0 0.10321,0 0.15427,0.015 h 54.93484 c 0.0513,-0.015 0.10243,-0.015 0.15427,-0.015 1.30983,0 2.40185,2.8887 2.64664,6.7183 h 2.66549 c 0.0498,0 0.10031,0 0.15118,0 h 0.21945 c 0.92543,0 1.68246,0.7876 1.68246,1.7504 v 12.7855 c 0,0.9627 -0.75703,1.7503 -1.68246,1.7503 h -0.0371 v 0.015 h -23.59237 z" id="path4188" fill="#102a83" fill-rule="evenodd" stroke-width=".015"/><path d="m 120.50209,18.184301 c 0.65274,0 1.182,1.2613 1.182,2.8164 0,1.5552 -0.52926,2.8165 -1.182,2.8165 -0.65275,0 -1.18201,-1.2613 -1.18201,-2.8165 0,-1.5551 0.52926,-2.8164 1.18201,-2.8164 z" id="path4190" fill="#fff" fill-rule="evenodd" stroke-width=".015"/><path d="m 150.50914,47.876601 c 0.53456,0 0.968,4.875 0.968,10.8858 0,6.0106 -0.43344,10.8856 -0.968,10.8856 -0.53453,0 -0.96797,-4.875 -0.96797,-10.8856 0,-6.0108 0.43344,-10.8858 0.96797,-10.8858 z" id="path4192" fill="#fff" fill-rule="evenodd" stroke-width=".015"/><path d="m 113.6608,70.767701 c 0.55069,-1.2936 0.98961,-2.648 1.35046,-4.0061 0.34858,-1.312 0.62847,-2.648 0.83824,-3.9892 0.34283,-2.1916 0.41706,-4.4422 0.0998,-6.6417 -0.52036,-3.6076 -2.10702,-7.0112 -5.04341,-9.2674 -1.4911,-1.1457 -3.2125,-1.8962 -5.0536,-2.2647 -2.0941,-0.4191 -4.26669,-0.3297 -6.351799,0.096 -4.55742,0.9327 -10.572018,2.8969 -16.353364,8.9514 3.758426,-6.8155 9.900722,-8.9701 16.090265,-10.237 2.256738,-0.4619 4.606548,-0.5515 6.872388,-0.098 2.03829,0.4079 3.94496,1.2426 5.59557,2.5108 3.21135,2.4675 4.97277,6.1699 5.54264,10.1206 0.336,2.3294 0.26098,4.7103 -0.10211,7.0318 -0.21742,1.39 -0.50769,2.7742 -0.86936,4.1337 -0.34147,1.2838 -0.75026,2.563 -1.2516,3.7956 -0.63472,0.3761 -1.28628,0.7241 -1.95205,1.0485 z" id="path4194" fill="#fff" fill-rule="evenodd" stroke-width=".015"/><path d="m 244.22956,12.383401 -19.59022,-0.051 -17.3359,33.3325 -0.23695,0.045 v -33.195 h -18.44034 v 65.2274 h 18.44034 v -20.6909 c 1.14483,0.3685 11.39247,20.6909 12.40849,20.6909 h 18.09563 l -16.29515,-27.4332 z" id="path4196" fill="#102a83" fill-rule="evenodd" stroke-width=".015"/><path d="m 266.92341,71.327301 h -13.0005 l -1.78842,6.4195 H 240.4753 l 13.87752,-38.8878 h 12.44162 l 13.88614,38.8878 h -11.94293 z m -2.39029,-8.4113 -4.08416,-13.9796 -4.05837,13.9796 z" id="path4198" fill="#102a83" fill-rule="evenodd" stroke-width=".015"/><path d="m 83.790422,81.672601 c 2.822548,3.8165 6.267129,6.766 10.793617,8.3386 3.937034,1.368 8.176511,1.5159 12.297281,1.2034 2.38741,-0.181 4.76744,-0.517 7.12738,-0.9162 2.61328,-0.4421 5.21435,-0.965 7.81008,-1.4996 5.91212,-1.2177 11.79197,-2.4769 17.7596,-3.4098 6.8947,-1.078 13.80726,-1.7191 20.79078,-1.7005 5.27824,0.017 10.55224,0.2195 15.81705,0.5949 4.87628,0.3478 9.73856,0.8441 14.58913,1.4514 12.52562,1.5683 24.85411,3.3177 37.29973,5.0921 l 0.003,6e-4 0.003,4e-4 c 3.06757,0.4721 6.16808,0.753 9.26775,0.8969 3.61323,0.1679 7.48647,0.4815 11.09983,0.3278 3.43587,-0.1509 9.09907,-0.533 14.21904,-1.3215 7.73016,-1.1904 15.93866,-2.8812 14.50624,-2.7202 l -1.09534,1.5476 c -3.83619,1.1089 -9.49047,1.9413 -13.8556,2.6552 -4.64673,0.7597 -9.48878,0.9698 -13.71854,1.1498 -3.65225,0.1554 -7.56439,-0.1584 -11.21651,-0.328 -3.14493,-0.1463 -6.29042,-0.4314 -9.40281,-0.9101 -12.43729,-1.7733 -24.75679,-3.5215 -37.27398,-5.0887 -4.82738,-0.6043 -9.66646,-1.0984 -14.51945,-1.4445 -5.23517,-0.3733 -10.47925,-0.5744 -15.7276,-0.5916 -6.91411,-0.018 -13.75787,0.6174 -20.5842,1.6847 -5.94658,0.9298 -11.8063,2.1853 -17.69758,3.3986 -2.611,0.5378 -5.22726,1.0635 -7.8559,1.5083 -2.39973,0.4059 -4.81937,0.7467 -7.24703,0.9307 -4.30143,0.3263 -8.718879,0.1551 -12.827145,-1.2723 -4.792443,-1.6651 -8.45605,-4.7831 -11.44203,-8.8305 l -0.02311,-0.032 -0.01925,-0.033 c -2.900726,-5.1008 -4.185816,-11.7425 -3.144522,-17.5313 1.436721,-7.987 6.858155,-13.229 14.279101,-16.0566 1.532597,-0.4843 3.065198,-0.8543 4.597805,-1.1726 -1.648602,1.0148 -3.169048,1.9817 -4.950976,2.7208 -6.569985,2.7245 -11.333226,7.5065 -12.634525,14.7407 -0.984567,5.4733 0.239261,11.7873 2.974529,16.6167 z" id="path4200" fill="#fff" fill-rule="evenodd" stroke-width=".015"/><path d="m 96.480422,72.207701 c 2.130098,2.6561 5.097208,4.3989 8.112808,5.7267 5.61604,-3.9007 9.01884,-10.9207 8.9013,-18.5494 -3.19533,6.1901 -9.80037,10.5335 -17.014108,12.8227 z" id="path4202" fill="#fff" fill-rule="evenodd" stroke-width=".015"/><path d="M 5e-7,5.0000108e-7 H 296.641 V 104.4208 H 5e-7 Z" id="path4204" fill="none" stroke="#000" stroke-width="0"/></svg>