<svg xmlns="http://www.w3.org/2000/svg" xml:space="preserve" x="0" y="0" enable-background="new 0 0 30 30" viewBox="0 0 30 30"><circle cx="15" cy="15" r="15" fill="#FFF"/><path fill="#F05523" d="m23.5 24.5-12.3 2.3c-3.2.6-6.1-1.8-6.1-5.1V8.3C5.1 5 8 2.6 11.2 3.2l12.3 2.3c1.8.3 3.2 1.9 3.2 3.8v11.4c0 1.9-1.3 3.5-3.2 3.8"/><path fill="#FFF" d="M11.8 19.7v-9c0-.4.4-.8.8-.7l9.1 1.3v-2L13 8c-1.7-.3-3.2 1-3.2 2.7v9c0 1.7 1.5 3 3.2 2.7l8.7-1.4v-2l-9.1 1.4c-.4.1-.8-.2-.8-.7"/><circle cx="15" cy="15" r="14.5" fill="none" stroke="#000" stroke-opacity=".07"/></svg>